<mxfile host="Electron" modified="2024-02-04T21:00:30.996Z" agent="Mozilla/5.0 (Windows NT 10.0; Win64; x64) AppleWebKit/537.36 (KHTML, like Gecko) draw.io/23.0.2 Chrome/120.0.6099.109 Electron/28.1.0 Safari/537.36" etag="dy8uO90poezcqonhyN6t" version="23.0.2" type="device">
  <diagram name="Page-1" id="ml6oYrOeXGRzeTUlJi8N">
    <mxGraphModel dx="794" dy="511" grid="1" gridSize="10" guides="1" tooltips="1" connect="1" arrows="1" fold="1" page="1" pageScale="1" pageWidth="827" pageHeight="1169" math="0" shadow="0">
      <root>
        <mxCell id="0" />
        <mxCell id="1" parent="0" />
        <UserObject label="Data Consuming User" type="externalEntity" source="" flow="" placeholders="1" id="0z29g8c_zYMMEG_oAwky-1">
          <mxCell style="shape=rectangle;whiteSpace=wrap;html=1;fillColor=#ffffff;strokeColor=#000000;align=center;verticalAlign=middle;fontColor=#232F3E;" vertex="1" parent="1">
            <mxGeometry x="52.5" width="145" height="35" as="geometry" />
          </mxCell>
        </UserObject>
        <UserObject label="Download Image" type="process" source="1" flow="Image Request" placeholders="1" id="0z29g8c_zYMMEG_oAwky-2">
          <mxCell style="shape=ellipse;perimeter=ellipsePerimeter;whiteSpace=wrap;html=1;fillColor=#ffffff;strokeColor=#000000;align=center;verticalAlign=middle;fontColor=#232F3E;" vertex="1" parent="1">
            <mxGeometry y="135" width="115" height="35" as="geometry" />
          </mxCell>
        </UserObject>
        <UserObject label="Image Request" type="dataStore" source="2" flow="Image" placeholders="1" id="0z29g8c_zYMMEG_oAwky-3">
          <mxCell style="html=1;dashed=0;whiteSpace=wrap;shape=partialRectangle;right=0;left=0;" vertex="1" parent="1">
            <mxGeometry x="5" y="270" width="105" height="35" as="geometry" />
          </mxCell>
        </UserObject>
        <UserObject label="Share Image" type="process" source="1" flow="Social Network" placeholders="1" id="0z29g8c_zYMMEG_oAwky-4">
          <mxCell style="shape=ellipse;perimeter=ellipsePerimeter;whiteSpace=wrap;html=1;fillColor=#ffffff;strokeColor=#000000;align=center;verticalAlign=middle;fontColor=#232F3E;" vertex="1" parent="1">
            <mxGeometry x="145" y="135" width="95" height="35" as="geometry" />
          </mxCell>
        </UserObject>
        <UserObject label="Social Network" type="externalEntity" source="" flow="" placeholders="1" id="0z29g8c_zYMMEG_oAwky-5">
          <mxCell style="shape=rectangle;whiteSpace=wrap;html=1;fillColor=#ffffff;strokeColor=#000000;align=center;verticalAlign=middle;fontColor=#232F3E;" vertex="1" parent="1">
            <mxGeometry x="780" width="105" height="35" as="geometry" />
          </mxCell>
        </UserObject>
        <UserObject label="Data Publishing User" type="externalEntity" source="" flow="" placeholders="1" id="0z29g8c_zYMMEG_oAwky-6">
          <mxCell style="shape=rectangle;whiteSpace=wrap;html=1;fillColor=#ffffff;strokeColor=#000000;align=center;verticalAlign=middle;fontColor=#232F3E;" vertex="1" parent="1">
            <mxGeometry x="455" width="145" height="35" as="geometry" />
          </mxCell>
        </UserObject>
        <UserObject label="Add Dataset (Hidden)" type="process" source="6" flow="Dataset" placeholders="1" id="0z29g8c_zYMMEG_oAwky-7">
          <mxCell style="shape=ellipse;perimeter=ellipsePerimeter;whiteSpace=wrap;html=1;fillColor=#ffffff;strokeColor=#000000;align=center;verticalAlign=middle;fontColor=#232F3E;" vertex="1" parent="1">
            <mxGeometry x="305" y="135" width="145" height="35" as="geometry" />
          </mxCell>
        </UserObject>
        <UserObject label="Dataset (Hidden)" type="dataStore" source="7" flow="Dataset" placeholders="1" id="0z29g8c_zYMMEG_oAwky-8">
          <mxCell style="html=1;dashed=0;whiteSpace=wrap;shape=partialRectangle;right=0;left=0;" vertex="1" parent="1">
            <mxGeometry x="300" y="270" width="115" height="35" as="geometry" />
          </mxCell>
        </UserObject>
        <UserObject label="Edit Dataset" type="process" source="6" flow="Dataset" placeholders="1" id="0z29g8c_zYMMEG_oAwky-9">
          <mxCell style="shape=ellipse;perimeter=ellipsePerimeter;whiteSpace=wrap;html=1;fillColor=#ffffff;strokeColor=#000000;align=center;verticalAlign=middle;fontColor=#232F3E;" vertex="1" parent="1">
            <mxGeometry x="480" y="135" width="95" height="35" as="geometry" />
          </mxCell>
        </UserObject>
        <UserObject label="Dataset (Edited)" type="dataStore" source="9" flow="Dataset" placeholders="1" id="0z29g8c_zYMMEG_oAwky-10">
          <mxCell style="html=1;dashed=0;whiteSpace=wrap;shape=partialRectangle;right=0;left=0;" vertex="1" parent="1">
            <mxGeometry x="445" y="270" width="115" height="35" as="geometry" />
          </mxCell>
        </UserObject>
        <UserObject label="Delete Dataset" type="process" source="6" flow="Dataset" placeholders="1" id="0z29g8c_zYMMEG_oAwky-11">
          <mxCell style="shape=ellipse;perimeter=ellipsePerimeter;whiteSpace=wrap;html=1;fillColor=#ffffff;strokeColor=#000000;align=center;verticalAlign=middle;fontColor=#232F3E;" vertex="1" parent="1">
            <mxGeometry x="605" y="135" width="105" height="35" as="geometry" />
          </mxCell>
        </UserObject>
        <UserObject label="Dataset (Deleted)" type="dataStore" source="11" flow="Dataset" placeholders="1" id="0z29g8c_zYMMEG_oAwky-12">
          <mxCell style="html=1;dashed=0;whiteSpace=wrap;shape=partialRectangle;right=0;left=0;" vertex="1" parent="1">
            <mxGeometry x="595" y="270" width="125" height="35" as="geometry" />
          </mxCell>
        </UserObject>
        <mxCell id="0z29g8c_zYMMEG_oAwky-13" value="Image Request" style="endArrow=blockThin;endFill=1;fontSize=11;orthogonal=1;noEdgeStyle=1;" edge="1" parent="1" source="0z29g8c_zYMMEG_oAwky-1" target="0z29g8c_zYMMEG_oAwky-2">
          <mxGeometry relative="1" as="geometry">
            <Array as="points">
              <mxPoint x="91.25" y="47" />
              <mxPoint x="57.5" y="123" />
            </Array>
          </mxGeometry>
        </mxCell>
        <mxCell id="0z29g8c_zYMMEG_oAwky-14" value="Image" style="endArrow=blockThin;endFill=1;fontSize=11;orthogonal=1;noEdgeStyle=1;" edge="1" parent="1" source="0z29g8c_zYMMEG_oAwky-2" target="0z29g8c_zYMMEG_oAwky-3">
          <mxGeometry relative="1" as="geometry">
            <Array as="points">
              <mxPoint x="57.5" y="182" />
              <mxPoint x="57.5" y="258" />
            </Array>
          </mxGeometry>
        </mxCell>
        <mxCell id="0z29g8c_zYMMEG_oAwky-15" value="Social Network" style="endArrow=blockThin;endFill=1;fontSize=11;orthogonal=1;noEdgeStyle=1;" edge="1" parent="1" source="0z29g8c_zYMMEG_oAwky-1" target="0z29g8c_zYMMEG_oAwky-4">
          <mxGeometry relative="1" as="geometry">
            <Array as="points">
              <mxPoint x="158.75" y="47" />
              <mxPoint x="192.5" y="123" />
            </Array>
          </mxGeometry>
        </mxCell>
        <mxCell id="0z29g8c_zYMMEG_oAwky-16" value="Dataset" style="endArrow=blockThin;endFill=1;fontSize=11;orthogonal=1;noEdgeStyle=1;" edge="1" parent="1" source="0z29g8c_zYMMEG_oAwky-6" target="0z29g8c_zYMMEG_oAwky-7">
          <mxGeometry relative="1" as="geometry">
            <Array as="points">
              <mxPoint x="482.5" y="47" />
              <mxPoint x="377.5" y="123" />
            </Array>
          </mxGeometry>
        </mxCell>
        <mxCell id="0z29g8c_zYMMEG_oAwky-17" value="Dataset" style="endArrow=blockThin;endFill=1;fontSize=11;orthogonal=1;noEdgeStyle=1;" edge="1" parent="1" source="0z29g8c_zYMMEG_oAwky-7" target="0z29g8c_zYMMEG_oAwky-8">
          <mxGeometry relative="1" as="geometry">
            <Array as="points">
              <mxPoint x="377.5" y="182" />
              <mxPoint x="357.5" y="258" />
            </Array>
          </mxGeometry>
        </mxCell>
        <mxCell id="0z29g8c_zYMMEG_oAwky-18" value="Dataset" style="endArrow=blockThin;endFill=1;fontSize=11;orthogonal=1;noEdgeStyle=1;" edge="1" parent="1" source="0z29g8c_zYMMEG_oAwky-6" target="0z29g8c_zYMMEG_oAwky-9">
          <mxGeometry relative="1" as="geometry">
            <Array as="points">
              <mxPoint x="527.5" y="49" />
              <mxPoint x="527.5" y="123" />
            </Array>
          </mxGeometry>
        </mxCell>
        <mxCell id="0z29g8c_zYMMEG_oAwky-19" value="Dataset" style="endArrow=blockThin;endFill=1;fontSize=11;orthogonal=1;noEdgeStyle=1;" edge="1" parent="1" source="0z29g8c_zYMMEG_oAwky-9" target="0z29g8c_zYMMEG_oAwky-10">
          <mxGeometry relative="1" as="geometry">
            <Array as="points">
              <mxPoint x="527.5" y="182" />
              <mxPoint x="502.5" y="258" />
            </Array>
          </mxGeometry>
        </mxCell>
        <mxCell id="0z29g8c_zYMMEG_oAwky-20" value="Dataset" style="endArrow=blockThin;endFill=1;fontSize=11;orthogonal=1;noEdgeStyle=1;" edge="1" parent="1" source="0z29g8c_zYMMEG_oAwky-6" target="0z29g8c_zYMMEG_oAwky-11">
          <mxGeometry relative="1" as="geometry">
            <Array as="points">
              <mxPoint x="572.5" y="47" />
              <mxPoint x="657.5" y="123" />
            </Array>
          </mxGeometry>
        </mxCell>
        <mxCell id="0z29g8c_zYMMEG_oAwky-21" value="Dataset" style="endArrow=blockThin;endFill=1;fontSize=11;orthogonal=1;noEdgeStyle=1;" edge="1" parent="1" source="0z29g8c_zYMMEG_oAwky-11" target="0z29g8c_zYMMEG_oAwky-12">
          <mxGeometry relative="1" as="geometry">
            <Array as="points">
              <mxPoint x="657.5" y="182" />
              <mxPoint x="657.5" y="258" />
            </Array>
          </mxGeometry>
        </mxCell>
      </root>
    </mxGraphModel>
  </diagram>
</mxfile>
